# xmcd CD database file
#
# Track frame offsets:
#	150
#	24343
#	39887
#	60543
#	75436
#	90373
#	129823
#	144420
#	162519
#	174172
#
# Disc length: 2585 seconds
#
# Revision: 1
# Processed by: cddbd v1.5.2PL0 Copyright (c) Steve Scherf et al.
# Submitted via: CDex 1.50
#
DISCID=640a170a
DTITLE=Various Artist - Black and Blue CD4
DYEAR=2006
DGENRE=Blues
TTITLE0=Lightnin´Hopkins - Happy Blues For John Glenn
TTITLE1=John Lee Hooker - Teaching The Blues
TTITLE2=Memphis Slim - Steady Rolling Blues
TTITLE3=Willie Dixon - Youth To You
TTITLE4=Albert King - Blue Suede Shoes
TTITLE5=Etta James - Sweet Little Angel
TTITLE6=Ruth Brown - 5-10-15 Hours
TTITLE7=Etta James - Teach Me Tonight
TTITLE8=Albert King - Crosscut Saw
TTITLE9=Odetta - Oh, My Baby
EXTD=YEAR: 2006
EXTT0=
EXTT1=
EXTT2=
EXTT3=
EXTT4=
EXTT5=
EXTT6=
EXTT7=
EXTT8=
EXTT9=
PLAYORDER=
